<svg height="512pt" viewBox="0 -45 512 512" width="512pt" xmlns="http://www.w3.org/2000/svg"><path d="m469.113281 82.570312c0-45.601562-38.105469-82.570312-85.113281-82.570312s-85.113281 36.96875-85.113281 82.570312c0 45.601563 38.105469 82.570313 85.113281 82.570313s85.113281-36.96875 85.113281-82.570313zm0 0"/><path d="m384 179.542969c-9.074219 0-17.925781.953125-26.464844 2.746093 2.425782 2.128907 4.765625 4.394532 6.996094 6.8125 16.117188 17.484376 24.996094 40.550782 24.996094 64.957032 0 29.539062-14.394532 51.144531-26.933594 66.664062-.808594 1.003906-84.535156 82.292969-84.535156 82.292969-6.148438 5.960937-14.097656 8.953125-22.058594 8.984375-.039062 0-.082031.003906-.121094.003906-8.023437 0-16.050781-3.015625-22.234375-9.039062 0 0-86.59375-84.40625-87.242187-85.167969-15.4375-17.347656-23.929688-39.933594-23.929688-63.738281 0-24.40625 8.878906-47.472656 24.996094-64.957032 2.230469-2.417968 4.570312-4.683593 6.996094-6.8125-8.539063-1.792968-17.390625-2.746093-26.464844-2.746093-70.691406 0-128 57.308593-128 128v104.128906c0 5.519531 4.476562 10 10 10h492c5.523438 0 10-4.480469 10-10v-104.128906c0-70.691407-57.308594-128-128-128zm0 0"/><path d="m213.113281 82.570312c0-45.601562-38.105469-82.570312-85.113281-82.570312s-85.113281 36.96875-85.113281 82.570312c0 45.601563 38.105469 82.570313 85.113281 82.570313s85.113281-36.96875 85.113281-82.570313zm0 0"/><path d="m154.339844 254.058594c0 16.820312 6.265625 32.035156 16.375 43.113281l-.007813.007813 78.207031 76.175781c3.878907 3.773437 10.054688 3.78125 13.941407.015625l74.949219-72.675782c10.8125-13.382812 19.855468-27.960937 19.855468-46.636718 0-26.507813-14.082031-61.316406-56.53125-61.316406-15.566406 0-29.664062 6.832031-39.890625 17.875-1.882812 2.035156-3.632812 4.21875-5.238281 6.523437-1.640625-2.355469-3.4375-4.578125-5.367188-6.652344-10.210937-10.96875-24.257812-17.746093-39.765624-17.746093-37.101563 0-56.527344 34.808593-56.527344 61.316406zm0 0"/></svg>